<?xml version="1.0" encoding="UTF-8"?><svg id="Layer_1" xmlns="http://www.w3.org/2000/svg" viewBox="0 0 587.7 600"><defs><style>.cls-1{stroke-width:3.78px;}.cls-1,.cls-2{fill:none;stroke:#000;stroke-miterlimit:10;}.cls-2{stroke-width:3.19px;}</style></defs><path d="m265.94,40.22c.07.28.1.65.1,1.12s-.03.83-.1,1.07c-.07.24-.09.47-.05.68.03.21.02.44-.05.68-.07.21-.12.43-.16.65-.04.23-.09.44-.16.65-.07.28-.15.54-.23.78-.09.24-.18.49-.29.73-.07.1-.11.2-.13.29-.02.09-.06.17-.13.23-.38.7-.8,1.32-1.25,1.88-.07.14-.18.28-.34.42-.16.14-.29.24-.39.31-.14.07-.26.17-.36.29-.1.12-.21.22-.31.29l-1.09.62c-.38.28-.83.49-1.35.63-.52.14-1.04.28-1.56.42-.28.07-.56.11-.83.13-.28.02-.56.06-.83.13-.14.03-.27.04-.39.03-.12-.02-.23,0-.34.03-.17.04-.34.04-.5,0-.16-.03-.32-.03-.5,0h-7.87c-.52,0-1.09,0-1.69-.03-.61-.02-1.07.1-1.38.34-.38.28-.56.78-.55,1.51.02.73.03,1.41.03,2.03v7.66c0,.45,0,1.02.03,1.69.02.68-.06,1.16-.23,1.43-.14.21-.3.34-.5.39-.19.05-.43.11-.7.18h-.94c-.52,0-.99-.02-1.41-.05-.42-.03-.71-.21-.89-.52-.14-.21-.21-.5-.21-.86v-32.7c0-.38,0-.81-.03-1.28-.02-.47.06-.84.23-1.12.14-.21.4-.38.78-.52.07-.03.14-.04.21-.03.07.02.14,0,.21-.03h11.83c1.32,0,2.61,0,3.88.03,1.27.02,2.41.18,3.41.49,1.56.52,2.83,1.2,3.8,2.03.97.83,1.77,1.98,2.4,3.44.17.38.3.78.39,1.2.09.42.2.85.34,1.3.07.24.09.47.05.68-.04.21-.02.44.05.68Zm-4.9,1.88c.14-.49.16-1.05.05-1.69-.1-.64-.21-1.15-.31-1.54-.35-.97-.81-1.75-1.38-2.32s-1.31-1.05-2.21-1.43c-.76-.31-1.64-.5-2.63-.57-.99-.07-2.02-.1-3.1-.1h-6.72c-.07.04-.15.05-.23.05s-.18.02-.29.05c-.42.1-.7.33-.83.68-.14.35-.2.81-.18,1.38.02.57.03,1.1.03,1.59v6.25c0,.52,0,1.09-.03,1.72-.02.63.08,1.11.29,1.46.17.28.44.44.81.49.36.05.77.08,1.22.08h7.04c.52,0,1.06,0,1.62-.03.56-.02,1.04-.08,1.46-.18.94-.24,1.76-.53,2.48-.86.71-.33,1.31-.84,1.8-1.54.28-.42.49-.85.65-1.3.16-.45.3-.96.44-1.51.03-.14.05-.36.05-.68Z"/><path d="m273.87,30.47c.24,0,.52,0,.83-.03.31-.02.62-.02.91,0,.29.02.56.06.81.13.24.07.42.17.52.31.21.24.32.58.34,1.02.02.43.03.88.03,1.33v32.7c0,.5-.09.9-.26,1.17-.14.17-.3.28-.5.31-.19.03-.43.09-.7.16h-.99c-.49,0-.94-.02-1.35-.05-.42-.03-.71-.21-.89-.52-.14-.21-.21-.5-.21-.86v-32.7c0-.38,0-.81-.03-1.28-.02-.47.06-.84.23-1.12.14-.24.42-.42.83-.52.07-.03.14-.04.21-.03.07.02.14,0,.21-.03Z"/><path d="m300.86,29.53c2.4-.07,4.5.15,6.31.65,1.81.5,3.4,1.24,4.79,2.21.63.42,1.2.89,1.72,1.41.07.07.14.14.21.21.07.07.14.14.21.21.17.28.36.53.57.76.21.23.4.48.57.76.38.59.71,1.22.99,1.88.28.66.56,1.34.83,2.03.1.35.16.71.16,1.09s-.14.66-.42.83c-.07.07-.17.1-.29.1s-.23.02-.34.05h-.36c-.17.07-.46.1-.86.1s-.69-.03-.86-.1c-.1-.03-.21-.03-.31,0-.1.03-.23.02-.36-.05-.21-.03-.4-.12-.57-.26-.21-.17-.36-.42-.44-.73-.09-.31-.2-.61-.34-.89-.17-.45-.37-.88-.6-1.28-.23-.4-.48-.79-.76-1.17-.07-.07-.16-.15-.26-.23-.1-.09-.19-.18-.26-.29-.31-.35-.63-.64-.94-.89-.17-.1-.33-.22-.47-.34-.14-.12-.3-.23-.47-.34-.49-.28-1.01-.52-1.56-.73-.56-.21-1.13-.4-1.72-.57-.31-.07-.63-.12-.94-.16-.31-.03-.63-.09-.94-.16-.14-.03-.27-.04-.39-.03-.12.02-.23,0-.34-.03h-1.35c-.24,0-.47.02-.68.05-.07,0-.16,0-.26.03-.1.02-.19.03-.26.03-.21.03-.43.07-.65.1-.23.04-.44.07-.65.1-1.22.31-2.28.75-3.18,1.3-1.46.9-2.63,1.97-3.52,3.2-.89,1.23-1.62,2.74-2.21,4.51-.14.38-.24.78-.31,1.2-.07.42-.16.83-.26,1.25-.07.17-.1.34-.08.5s0,.32-.08.5c-.07.24-.1.5-.08.76.02.26,0,.53-.08.81v.57c-.03.21-.05.5-.05.89s.02.66.05.83v.52c.03.07.05.17.05.29s.02.22.05.29c.07.24.09.47.05.68-.03.21-.02.43.05.68.07.28.13.55.18.81.05.26.11.53.18.81.17.52.36,1.03.55,1.54.19.5.39,1,.6,1.49.17.42.39.82.65,1.2.26.38.53.75.81,1.09,1.28,1.74,2.97,3.02,5.05,3.86.24.1.49.19.73.26.24.07.5.14.78.21.83.24,1.81.36,2.92.36h.7c.23,0,.44-.02.65-.05.17-.07.36-.09.55-.05.19.03.37.02.55-.05.49-.14.95-.25,1.38-.34.43-.09.84-.22,1.22-.39,3.23-1.29,5.4-3.6,6.51-6.93.07-.28.13-.56.18-.83.05-.28.11-.56.18-.83.1-.42.14-.88.1-1.38-.03-.5-.19-.86-.47-1.07-.28-.17-.66-.26-1.15-.26h-8.44c-.45,0-.82-.05-1.09-.16-.28-.14-.45-.33-.52-.57-.07-.14-.12-.34-.16-.6-.04-.26-.05-.53-.05-.81s.03-.55.08-.81.11-.44.18-.55c.14-.24.38-.42.73-.52.17-.07.38-.1.62-.1h11c.38,0,.76,0,1.15-.03.38-.02.74,0,1.07.05.33.05.62.14.86.26.24.12.42.34.52.65.07.21.1.45.08.73-.02.28-.03.56-.03.83v15.63c0,.24-.03.45-.1.63-.1.28-.31.49-.63.63-.1.07-.33.1-.68.1-.49,0-.85-.05-1.09-.16-.24-.1-.44-.26-.57-.47-.14-.21-.25-.45-.34-.73-.09-.28-.18-.59-.29-.94-.07-.24-.18-.56-.34-.94-.16-.38-.43-.52-.81-.42-.24.07-.44.17-.57.31-.14.14-.3.28-.47.42-.28.21-.54.43-.78.65-.24.23-.5.43-.78.6-.73.49-1.5.89-2.32,1.2-.82.31-1.69.61-2.63.89-.24.07-.49.12-.73.16-.24.03-.5.09-.78.16-.28,0-.49.02-.63.05h-.34c-.12,0-.23.02-.34.05h-.52c-.14.03-.33.05-.57.05s-.45-.02-.63-.05h-.89c-.38-.07-.74-.11-1.07-.13-.33-.02-.67-.08-1.02-.18-.63-.17-1.23-.33-1.82-.47-.59-.14-1.16-.33-1.72-.57-1.98-.9-3.72-2.11-5.21-3.62-1.49-1.51-2.69-3.27-3.6-5.29-.17-.42-.34-.85-.5-1.3-.16-.45-.32-.92-.5-1.41-.04-.14-.05-.27-.05-.39s-.03-.25-.1-.39c-.1-.38-.18-.78-.23-1.2-.05-.42-.13-.83-.23-1.25-.03-.14-.04-.28-.03-.42.02-.14,0-.26-.03-.36v-.47c-.07-.17-.1-.5-.1-.99s.03-.83.1-1.04v-1.09c0-.21.02-.42.05-.63.03-.17.05-.36.05-.55s.02-.37.05-.55c.1-.42.18-.83.23-1.25.05-.42.13-.83.23-1.25.35-1.15.7-2.25,1.07-3.31.36-1.06.84-2.04,1.43-2.94,1.04-1.63,2.28-3.03,3.73-4.19,1.44-1.16,3.15-2.08,5.13-2.74.38-.14.76-.23,1.12-.29.36-.05.74-.13,1.12-.23.17-.07.34-.1.5-.1s.32-.02.5-.05c.28-.03.56-.06.86-.08.29-.02.58-.03.86-.03Z"/><path d="m326.6,30.37h21.52c.38,0,.76,0,1.15-.03.38-.02.69.06.94.23.1.07.19.16.26.26.07.1.14.21.21.31.07.24.1.63.1,1.17s-.04.95-.1,1.23c-.14.49-.44.76-.89.81-.45.05-.99.08-1.62.08h-13.97c-.56,0-1.21,0-1.95-.03-.75-.02-1.29.08-1.64.29-.35.21-.53.57-.55,1.09-.02.52-.03,1.06-.03,1.62v5.32c0,.38,0,.83-.03,1.35-.02.52,0,.94.08,1.25.1.42.31.7.63.83.14.07.38.14.73.21h.52c.14.04.29.04.44.03.16-.02.32-.03.5-.03h11.99c.31,0,.66,0,1.04-.03.38-.02.77-.02,1.17,0,.4.02.76.05,1.09.1.33.05.58.13.76.23.1.07.19.23.26.47.07.24.12.5.16.78.03.28.04.56.03.86-.02.3-.06.55-.13.76-.07.31-.23.54-.47.68-.07.07-.17.11-.29.13-.12.02-.23.04-.34.08h-.31c-.17.04-.35.04-.52.03-.17-.02-.35-.03-.52-.03h-12.92c-.42,0-.83,0-1.22-.03-.4-.02-.77,0-1.12.05-.35.05-.65.15-.91.29-.26.14-.44.38-.55.73-.07.21-.1.45-.08.73.02.28.03.56.03.83v7.87c0,.49.02.93.05,1.33.03.4.17.69.42.86.24.17.52.27.83.29.31.02.66.03,1.04.03h15.95c.28,0,.56,0,.83-.03.28-.02.52,0,.73.08.42.14.69.33.83.57.07.1.12.28.16.52.03.24.06.5.08.76.02.26,0,.52-.03.78-.03.26-.07.46-.1.6-.14.28-.3.47-.47.57-.21.14-.48.21-.81.21h-22.12c-.49,0-.9-.03-1.25-.08-.35-.05-.61-.22-.78-.5-.14-.21-.21-.48-.21-.81V31.67c0-.31.07-.56.21-.73.14-.24.4-.42.78-.52.07-.03.14-.04.21-.03.07.02.14,0,.21-.03Z"/><path d="m390.49,48.19c.04.17.05.43.05.76s-.02.58-.05.76v.62c-.07.35-.1.7-.1,1.07s-.04.7-.1,1.02c-.07.28-.12.54-.16.78-.04.24-.07.5-.11.78-.17.59-.33,1.16-.47,1.72-.14.56-.31,1.09-.52,1.62-1.04,2.54-2.41,4.66-4.09,6.36-1.69,1.7-3.88,3.01-6.59,3.91-.38.1-.77.19-1.15.26-.38.07-.76.16-1.15.26-.17.03-.33.05-.47.05s-.28.02-.42.05l-1.72.16c-.1.03-.34.04-.7.03-.36-.02-.6-.04-.7-.08-.17-.04-.34-.04-.5-.03-.16.02-.3,0-.44-.03h-.57c-.24-.07-.48-.11-.7-.13-.23-.02-.46-.04-.7-.08-.35-.1-.69-.18-1.02-.23-.33-.05-.67-.13-1.02-.23-.35-.14-.7-.28-1.04-.42-.35-.14-.7-.28-1.04-.42-2.12-.94-3.87-2.23-5.24-3.88-1.37-1.65-2.51-3.57-3.41-5.76-.21-.49-.36-.99-.47-1.51-.1-.52-.24-1.06-.42-1.62-.07-.14-.1-.26-.08-.36.02-.1,0-.24-.08-.42-.07-.24-.1-.5-.1-.78s-.03-.56-.1-.83c-.07-.14-.1-.28-.08-.42.02-.14,0-.26-.03-.36v-1.09c-.07-.17-.1-.42-.1-.73s.03-.56.1-.73v-.68l.16-1.88c.07-.21.1-.42.1-.63s.03-.42.1-.63c.14-.56.26-1.1.36-1.64.1-.54.26-1.05.47-1.54.28-.66.54-1.3.78-1.93.24-.63.56-1.22.94-1.77.97-1.56,2.12-2.92,3.44-4.06,1.32-1.15,2.88-2.08,4.69-2.81.38-.17.79-.31,1.22-.42.43-.1.88-.23,1.33-.36.21-.07.42-.1.65-.1s.44-.03.65-.1c.28-.03.55-.06.81-.08.26-.02.53-.04.81-.08.07-.03.16-.03.26,0,.1.03.19.03.26,0,2.33-.07,4.36.17,6.1.7,1.74.54,3.27,1.28,4.59,2.21.52.35,1.02.71,1.51,1.09.49.38.92.82,1.3,1.3.1.17.22.31.36.42.14.1.26.24.37.42.21.28.42.57.62.86.21.3.4.58.57.86.07.17.14.32.21.44.07.12.16.27.26.44.14.21.26.42.37.62.28.63.55,1.29.83,1.98.07.21.13.41.18.6.05.19.11.39.18.6.1.35.2.7.29,1.07.09.36.18.74.29,1.12.07.17.1.35.1.52s.02.35.05.52c.07.24.1.49.1.73s.04.5.11.78v.31c.03.17.03.35,0,.52-.04.17-.02.35.05.52Zm-4.9,1.67c.07-.17.11-.48.11-.91s-.04-.74-.11-.91v-.42c0-.17,0-.33-.03-.47-.02-.14-.03-.29-.03-.47-.07-.17-.1-.34-.08-.5.02-.16,0-.32-.08-.5-.07-.31-.13-.63-.18-.94-.05-.31-.11-.61-.18-.89-.17-.49-.32-.95-.44-1.38-.12-.43-.27-.86-.44-1.28-.59-1.42-1.4-2.71-2.42-3.86-1.03-1.15-2.23-2.03-3.62-2.66-.76-.35-1.67-.63-2.71-.83-.49-.14-1.03-.22-1.64-.23-.61-.02-1.21-.03-1.8-.03-.24.04-.48.06-.7.08-.23.02-.48.04-.76.08-.52.14-1.02.27-1.49.39-.47.12-.93.27-1.38.44-1.88.8-3.35,1.95-4.43,3.44-1.08,1.49-1.95,3.25-2.61,5.26-.14.38-.23.77-.29,1.17-.05.4-.13.81-.23,1.22-.04.17-.05.34-.05.5s-.02.32-.05.5c-.07.14-.1.29-.08.44.02.16,0,.3-.03.44v.47c-.04.17-.05.49-.05.94s.02.76.05.94c0,.14,0,.27.03.39.02.12.03.25.03.39.07.28.11.58.13.91.02.33.06.63.13.91.03.14.04.27.03.39-.02.12,0,.25.08.39.1.38.19.76.26,1.15.07.38.19.76.36,1.15.17.38.32.76.44,1.12.12.36.29.72.49,1.07.17.28.34.55.5.81.16.26.32.53.5.81,1.08,1.53,2.48,2.73,4.22,3.6.49.28.98.49,1.49.63.5.14,1.05.3,1.64.47.24.07.47.1.68.08.21-.02.43,0,.68.08.21.07.44.1.7.08.26-.02.53-.03.81-.03h.52c.17-.03.35-.06.52-.08.17-.02.35-.03.52-.03.49-.1.95-.19,1.38-.26.43-.07.84-.19,1.22-.36,1.77-.73,3.22-1.68,4.35-2.87,1.13-1.18,2.06-2.66,2.79-4.43.17-.45.32-.92.44-1.41.12-.49.25-.97.39-1.46.07-.21.11-.42.13-.65.02-.23.06-.46.13-.7l.16-1.72v-.47Z"/><path d="m398.1,30.37c.63,0,1.32,0,2.08-.03.76-.02,1.34.11,1.72.39.28.21.54.51.78.91.24.4.47.76.68,1.07.45.7.91,1.4,1.38,2.11.47.71.93,1.43,1.38,2.16.24.38.5.76.76,1.12s.51.74.76,1.12c1.04,1.67,2.1,3.33,3.18,4.98,1.08,1.65,2.15,3.31,3.23,4.98.28.49.58.95.91,1.38.33.43.63.89.91,1.38.59.94,1.19,1.87,1.8,2.79.61.92,1.21,1.83,1.8,2.74.17.28.39.62.65,1.02.26.4.58.6.96.6.17-.07.26-.12.26-.16.17-.21.26-.5.26-.89v-24.28c0-.24-.02-.5-.05-.78-.04-.28-.02-.54.05-.78v-.57c.07-.14.11-.28.13-.42.02-.14.06-.26.13-.36.21-.28.52-.43.94-.44.42-.02.87-.03,1.35-.03h.65c.23,0,.42.04.6.1.42.17.65.48.7.91.05.44.08.95.08,1.54v31.94c0,.38,0,.76.03,1.15.02.38-.06.68-.23.89-.14.21-.3.34-.5.39-.19.05-.43.11-.7.18h-2.63c-.44,0-.79-.07-1.07-.21-.28-.1-.5-.28-.65-.52-.16-.24-.32-.49-.5-.73-.28-.42-.57-.85-.86-1.3-.3-.45-.58-.9-.86-1.35-1.25-1.88-2.48-3.73-3.7-5.58-1.22-1.84-2.43-3.72-3.65-5.63-.66-1.04-1.33-2.07-2.01-3.07-.68-1.01-1.35-2.03-2.01-3.07-1.15-1.81-2.34-3.63-3.6-5.47-.14-.24-.28-.48-.42-.7-.14-.23-.33-.42-.57-.6-.07-.03-.14-.09-.21-.16-.07-.07-.16-.09-.26-.05-.21.07-.33.21-.36.42-.04.21-.09.42-.16.62v.36c-.07.24-.09.51-.05.81.03.3.05.58.05.86v22.46c0,.17,0,.38.03.62.02.24,0,.45-.08.63v.42c-.07.35-.14.59-.21.73-.07.17-.19.29-.37.34-.17.05-.36.11-.57.18h-1.04c-.49,0-.92-.02-1.3-.05-.38-.03-.66-.19-.83-.47-.17-.21-.26-.5-.26-.86v-34.08c0-.47.09-.84.26-1.12.1-.17.31-.33.62-.47.07-.03.17-.04.29-.03.12.02.22,0,.29-.03Z"/><path d="m240.1,93.01c.24,0,.52,0,.83-.03.31-.02.62-.02.91,0,.29.02.56.06.81.13.24.07.42.17.52.31.21.24.32.58.34,1.02.02.43.03.88.03,1.33v32.7c0,.5-.09.9-.26,1.17-.14.17-.3.28-.5.31-.19.03-.43.09-.7.16h-.99c-.49,0-.94-.02-1.35-.05-.42-.03-.71-.21-.89-.52-.14-.21-.21-.5-.21-.86v-32.7c0-.38,0-.81-.03-1.28-.02-.47.06-.84.23-1.12.14-.24.42-.42.83-.52.07-.03.14-.04.21-.03.07.02.14,0,.21-.03Z"/><path d="m253.33,92.9c.63,0,1.32,0,2.08-.03.76-.02,1.34.11,1.72.39.28.21.54.51.78.91.24.4.47.76.68,1.07.45.7.91,1.4,1.38,2.11.47.71.93,1.43,1.38,2.16.24.38.5.76.76,1.12.26.36.51.74.76,1.12,1.04,1.67,2.1,3.33,3.18,4.98,1.08,1.65,2.15,3.31,3.23,4.98.28.49.58.95.91,1.38.33.43.63.89.91,1.38.59.94,1.19,1.87,1.8,2.79.61.92,1.21,1.83,1.8,2.74.17.28.39.62.65,1.02.26.4.58.6.96.6.17-.07.26-.12.26-.16.17-.21.26-.5.26-.89v-24.28c0-.24-.02-.5-.05-.78-.04-.28-.02-.54.05-.78v-.57c.07-.14.11-.28.13-.42.02-.14.06-.26.13-.36.21-.28.52-.43.94-.44.42-.02.87-.03,1.35-.03h.65c.23,0,.43.04.6.1.42.17.65.48.7.91.05.44.08.95.08,1.54v31.94c0,.38,0,.76.03,1.15.02.38-.06.68-.23.89-.14.21-.3.34-.49.39-.19.05-.43.11-.7.18h-2.63c-.43,0-.79-.07-1.07-.21-.28-.1-.5-.28-.65-.52-.16-.24-.32-.49-.5-.73-.28-.42-.56-.85-.86-1.3-.3-.45-.58-.9-.86-1.35-1.25-1.88-2.48-3.73-3.7-5.58-1.22-1.84-2.43-3.72-3.65-5.63-.66-1.04-1.33-2.07-2.01-3.07-.68-1.01-1.35-2.03-2.01-3.07-1.15-1.81-2.35-3.63-3.6-5.47-.14-.24-.28-.48-.42-.7-.14-.23-.33-.42-.57-.6-.07-.03-.14-.09-.21-.16-.07-.07-.16-.09-.26-.05-.21.07-.33.21-.37.42-.03.21-.09.42-.16.62v.36c-.07.24-.09.51-.05.81.03.3.05.58.05.86v22.46c0,.17,0,.38.03.62.02.24,0,.45-.08.63v.42c-.07.35-.14.59-.21.73-.07.17-.19.29-.36.34-.17.05-.37.11-.57.18h-1.04c-.49,0-.92-.02-1.3-.05-.38-.03-.66-.19-.83-.47-.17-.21-.26-.5-.26-.86v-34.08c0-.47.09-.84.26-1.12.1-.17.31-.33.63-.47.07-.03.16-.04.29-.03.12.02.22,0,.29-.03Z"/><path d="m290.96,92.9h21.44c.36,0,.65.07.86.21.28.17.44.43.5.76.05.33.08.72.08,1.17,0,.17,0,.34.03.5.02.16,0,.3-.08.44-.14.56-.44.86-.91.91-.47.05-1.05.08-1.75.08h-13.08c-.56,0-1.15,0-1.77-.03s-1.09.1-1.41.34c-.31.21-.48.57-.49,1.09-.02.52-.03,1.04-.03,1.56v5.16c0,.28,0,.63-.03,1.04-.02.42,0,.76.08,1.04v.42c.07.21.13.41.18.6.05.19.16.34.34.44.31.21.8.3,1.46.29.66-.02,1.23-.03,1.72-.03h9.38c.31,0,.65,0,1.02-.03.36-.02.73-.02,1.09,0,.36.02.69.06.99.13.29.07.5.19.6.36.17.21.26.47.26.78v1.62c0,.17-.03.33-.1.47-.14.35-.33.54-.57.57-.14.07-.27.1-.39.1s-.27.02-.44.05c-.14.04-.29.04-.44.03-.16-.02-.3-.03-.44-.03h-10.63c-.56,0-1.21,0-1.95-.03-.75-.02-1.28.1-1.59.34-.17.14-.3.36-.39.65-.09.3-.14.63-.16,1.02-.02.38-.02.77,0,1.17.02.4.03.76.03,1.07v8.96c0,.59.02,1.23.05,1.93.03.7-.09,1.22-.36,1.56-.1.14-.26.22-.47.23-.21.02-.42.06-.62.13h-.99c-.49,0-.94-.02-1.35-.05-.42-.03-.71-.21-.89-.52-.14-.21-.21-.5-.21-.86v-32.7c0-.38,0-.81-.03-1.28-.02-.47.06-.84.23-1.12.14-.21.4-.38.78-.52.07-.03.15-.04.23-.03.09.02.16,0,.23-.03Z"/><path d="m321.13,93.01c.24,0,.52,0,.83-.03.31-.02.62-.02.91,0,.29.02.56.06.81.13.24.07.42.17.52.31.21.24.32.58.34,1.02.02.43.03.88.03,1.33v32.7c0,.5-.09.9-.26,1.17-.14.17-.3.28-.5.31-.19.03-.43.09-.7.16h-.99c-.49,0-.94-.02-1.35-.05-.42-.03-.71-.21-.89-.52-.14-.21-.21-.5-.21-.86v-32.7c0-.38,0-.81-.03-1.28-.02-.47.06-.84.23-1.12.14-.24.42-.42.83-.52.07-.03.14-.04.21-.03.07.02.14,0,.21-.03Z"/><path d="m362.09,128.7c.17.45.1.8-.21,1.04-.17.1-.39.17-.65.18-.26.02-.53.03-.81.03h-1.67c-.56,0-.99-.12-1.3-.37-.28-.17-.46-.44-.55-.81-.09-.36-.17-.74-.23-1.12-.04-.14-.05-.27-.05-.39v-.34c-.07-.17-.09-.33-.05-.47.03-.14.03-.28,0-.42-.03-.21-.05-.42-.05-.63v-.62l-.16-2.35c-.07-.24-.1-.49-.1-.73s-.04-.5-.1-.78c-.17-.63-.3-1.25-.39-1.88-.09-.63-.25-1.22-.5-1.77-.66-1.46-1.75-2.43-3.28-2.92-.45-.17-.95-.27-1.48-.29-.54-.02-1.1-.03-1.69-.03h-9.59c-.24.07-.46.13-.65.18-.19.05-.36.17-.49.34-.24.35-.36.91-.34,1.69.02.78.03,1.47.03,2.06v7.56c0,.49.02,1.09.05,1.8.03.71-.04,1.24-.21,1.59-.07.24-.21.4-.42.47-.14.07-.27.1-.39.1s-.27.04-.44.1c-.14.03-.3.04-.47.03-.17-.02-.35-.03-.52-.03-.38,0-.76,0-1.12-.03-.36-.02-.67-.11-.91-.29-.28-.17-.42-.5-.42-.96v-33.07c0-.38,0-.78-.03-1.2-.02-.42.06-.75.23-.99.14-.21.4-.38.78-.52.07-.03.14-.04.21-.03.07.02.14,0,.21-.03h15.11c.24,0,.5,0,.78-.03.28-.02.52,0,.73.03h.57c.21.03.42.06.63.08.21.02.43.04.68.08.28.07.56.12.86.16.29.04.58.09.86.16.66.21,1.27.44,1.82.68.56.24,1.08.54,1.56.89.87.59,1.57,1.31,2.11,2.16.54.85.98,1.85,1.33,3,.07.28.11.56.13.86.02.3.06.58.13.86v.52c.03.17.04.37.03.6-.02.23-.04.43-.08.6v.57c-.07.28-.11.54-.13.78-.02.24-.06.49-.13.73-.17.52-.34,1.02-.49,1.48-.16.47-.37.91-.65,1.33-.1.17-.22.33-.34.47-.12.14-.23.3-.34.47-.04.04-.07.06-.1.08-.04.02-.07.04-.1.08-.07.07-.15.16-.23.26-.09.1-.17.19-.23.26-.28.21-.54.41-.78.6-.24.19-.5.37-.78.55-.17.1-.33.22-.47.34-.14.12-.23.29-.26.5-.04.21.04.38.23.52.19.14.36.24.5.31.38.24.74.5,1.07.78.33.28.62.61.86.99.38.49.66,1.03.83,1.64.17.61.35,1.26.52,1.95.03.28.07.55.1.81.03.26.07.53.1.81.07.24.09.49.05.73-.04.24-.02.49.05.73v.47c.07.24.09.5.05.78-.04.28-.02.56.05.83.03.14.04.27.03.39-.02.12,0,.27.03.44.07.35.12.7.16,1.07.03.36.1.7.21,1.02.07.21.11.41.13.6.02.19.06.39.13.6l.47,1.25Zm-6.31-21.63c.24-.38.43-.78.55-1.2.12-.42.23-.87.34-1.35v-.47c.1-.49.12-1.02.05-1.59-.07-.57-.17-1.05-.31-1.43-.56-1.74-1.65-2.94-3.28-3.6-.7-.28-1.5-.43-2.42-.47-.92-.03-1.87-.05-2.84-.05h-8.6c-.07.04-.15.05-.23.05s-.18.02-.29.05c-.42.1-.7.33-.83.68-.14.31-.2.75-.18,1.3.02.56.03,1.06.03,1.51v5.99c0,.52,0,1.07-.03,1.64-.02.57.1,1.02.34,1.33.17.24.43.39.78.44.35.05.73.08,1.15.08h3.23c1.35,0,2.67,0,3.96.03,1.28.02,2.48-.05,3.57-.21,1.09-.16,2.08-.44,2.94-.86.87-.42,1.56-1.04,2.08-1.88Z"/><path d="m370.22,92.9h4.17c.31,0,.57.07.78.21.31.21.53.49.65.83.12.35.27.71.44,1.09.28.66.53,1.32.76,1.98.23.66.48,1.32.76,1.98.24.63.47,1.26.68,1.9.21.64.45,1.28.73,1.9.21.49.4.99.57,1.51.17.52.37,1.03.57,1.51.62,1.56,1.22,3.14,1.77,4.72.56,1.58,1.15,3.15,1.77,4.72.07.17.13.35.18.52.05.17.11.35.18.52.31.76.61,1.54.89,2.32.28.78.57,1.56.89,2.32.14.31.28.69.42,1.12.14.43.37.69.68.76.14.04.24.03.31-.03.07-.05.14-.11.21-.18.17-.17.3-.36.39-.57.09-.21.18-.43.29-.68.28-.73.55-1.47.83-2.21.28-.75.56-1.49.83-2.21.07-.17.14-.36.21-.55.07-.19.14-.39.21-.6.28-.66.53-1.33.76-2.01.22-.68.48-1.36.76-2.06.83-2.01,1.61-4.05,2.32-6.1.71-2.05,1.48-4.08,2.32-6.1.28-.69.55-1.41.81-2.14.26-.73.53-1.44.81-2.14.14-.28.27-.63.39-1.04.12-.42.3-.71.55-.89.21-.14.48-.24.81-.31.33-.07.7-.11,1.12-.13.42-.02.83-.02,1.25,0,.42.02.8.03,1.15.03h.96c.33,0,.58.07.76.21.31.17.49.49.52.94.04.45.05.94.05,1.46v31.89c0,.38,0,.76.03,1.15.02.38-.06.68-.24.89-.1.21-.26.34-.47.39s-.45.11-.73.18h-.83c-.45,0-.87,0-1.25-.03-.38-.02-.66-.16-.83-.44-.07-.1-.11-.22-.13-.34-.02-.12-.06-.27-.13-.44v-.57c-.04-.21-.04-.45-.03-.73.02-.28.03-.54.03-.78v-20.92c0-.89-.02-1.75-.05-2.58,0-.35-.02-.73-.05-1.15-.04-.42-.23-.62-.57-.62v.05c-.24.07-.44.3-.6.68-.16.38-.29.71-.39.99-.24.59-.47,1.19-.68,1.8-.21.61-.45,1.21-.73,1.8-.07.17-.12.33-.16.47-.04.14-.09.3-.16.47-.28.62-.51,1.26-.7,1.9-.19.64-.43,1.28-.71,1.9-.24.52-.45,1.05-.62,1.59-.17.54-.36,1.07-.57,1.59-.7,1.63-1.32,3.27-1.88,4.92-.55,1.65-1.16,3.27-1.82,4.87-.28.62-.52,1.25-.73,1.88-.21.62-.44,1.25-.68,1.88-.17.38-.34.74-.49,1.07-.16.33-.46.56-.91.7-.07.03-.15.04-.23.03-.09-.02-.18,0-.29.03-.11.04-.23.04-.37.03-.14-.02-.28-.03-.42-.03h-1.04c-.35,0-.62-.09-.83-.26-.28-.17-.48-.43-.6-.76-.12-.33-.27-.67-.44-1.02-.28-.69-.55-1.42-.81-2.16-.26-.75-.53-1.47-.81-2.16-.28-.63-.51-1.26-.7-1.9-.19-.64-.43-1.28-.7-1.9-.8-1.95-1.55-3.91-2.24-5.89-.7-1.98-1.44-3.94-2.24-5.89-.28-.73-.55-1.47-.81-2.21-.26-.75-.53-1.47-.81-2.16-.17-.38-.32-.76-.44-1.12-.12-.36-.3-.69-.55-.96-.04-.07-.07-.11-.1-.13-.03-.02-.07-.04-.1-.08h-.26s-.07.06-.1.08-.07.04-.1.08c-.07.17-.1.36-.1.57s-.04.42-.1.62v.57c-.07.21-.09.44-.05.68.03.24.05.49.05.73v22.77c0,.38,0,.76-.03,1.15-.02.38-.11.68-.29.89-.17.28-.48.43-.91.44-.43.02-.89.03-1.38.03h-.65c-.19,0-.37-.03-.55-.1-.45-.14-.7-.43-.76-.89-.05-.45-.08-.97-.08-1.56v-31.79c0-.38,0-.78-.03-1.2-.02-.42.06-.75.23-.99.14-.21.4-.38.78-.52.07-.03.15-.04.23-.03.09.02.16,0,.23-.03Z"/><path d="m443.02,127.3c.07.17.16.38.26.62.1.24.18.5.24.76.05.26.05.5,0,.73-.05.23-.2.39-.44.5-.17.07-.38.1-.62.1h-2.27c-.54,0-.96-.09-1.28-.26-.35-.21-.6-.57-.76-1.09-.16-.52-.32-.99-.5-1.41-.38-.9-.73-1.84-1.04-2.81s-.66-1.93-1.04-2.87c-.1-.31-.2-.61-.29-.89-.09-.28-.19-.54-.31-.78-.12-.24-.29-.45-.5-.62-.21-.17-.49-.31-.83-.42-.17-.07-.37-.1-.6-.08-.23.02-.46.03-.7.03h-9.85c-.31,0-.66,0-1.04-.03-.38-.02-.75,0-1.09.03-.35.04-.67.09-.96.16-.29.07-.51.21-.65.42-.28.35-.48.74-.6,1.17-.12.44-.27.88-.44,1.33-.35.8-.67,1.63-.96,2.5-.3.87-.62,1.7-.96,2.5-.07.21-.15.44-.23.7-.09.26-.18.53-.29.81-.1.28-.22.53-.34.76-.12.23-.25.39-.39.5-.28.21-.65.32-1.12.34-.47.02-.96.03-1.49.03-.28,0-.55,0-.81-.03-.26-.02-.48-.1-.65-.23-.17-.1-.27-.26-.29-.47s0-.42.05-.65c.05-.23.12-.45.21-.68.09-.23.16-.39.23-.5.49-1.11.92-2.21,1.3-3.31.38-1.09.8-2.2,1.25-3.31.31-.76.61-1.52.89-2.27.28-.75.57-1.5.89-2.27,1.04-2.5,2.03-5.03,2.97-7.58.94-2.55,1.93-5.1,2.97-7.63.38-.9.74-1.82,1.07-2.76.33-.94.69-1.86,1.07-2.76.17-.38.34-.81.5-1.28.16-.47.39-.81.7-1.02.14-.14.36-.24.68-.31.07-.03.15-.04.23-.03.09.02.16,0,.23-.03.62,0,1.35,0,2.19-.03.83-.02,1.44.11,1.82.39.28.21.5.55.65,1.02.16.47.32.9.5,1.28.35.8.66,1.6.94,2.4.28.8.59,1.6.94,2.4.28.7.55,1.41.81,2.14s.55,1.44.86,2.14c1.04,2.54,2.04,5.1,3,7.69.96,2.59,1.97,5.15,3.05,7.69.14.31.25.61.34.89.09.28.18.57.29.89.38.9.76,1.82,1.12,2.76.37.94.74,1.86,1.12,2.76Zm-11.15-12.66c.31-.1.51-.28.6-.52.09-.24.1-.51.05-.81-.05-.29-.14-.59-.26-.89-.12-.29-.23-.55-.34-.76-.07-.14-.1-.26-.1-.36s-.03-.23-.1-.37c-.1-.28-.2-.56-.29-.86-.09-.29-.2-.6-.34-.91-.52-1.25-.98-2.53-1.38-3.83-.4-1.3-.86-2.58-1.38-3.83-.17-.38-.32-.76-.44-1.15-.12-.38-.27-.75-.44-1.09-.07-.17-.15-.34-.23-.5-.09-.16-.27-.23-.55-.23-.07.07-.14.12-.21.16-.07.04-.14.09-.21.16-.14.17-.24.36-.31.55-.07.19-.14.39-.21.6-.17.38-.31.76-.42,1.15-.1.38-.24.76-.42,1.15-.59,1.35-1.1,2.73-1.54,4.12-.43,1.39-.93,2.75-1.49,4.06-.07.17-.13.35-.18.52-.05.17-.11.35-.18.52-.1.28-.21.56-.31.83-.1.28-.19.56-.26.83-.07.17-.1.36-.08.57.02.21.06.38.13.52.17.28.54.43,1.09.44.55.02,1.08.03,1.56.03h5.58c.38,0,.85,0,1.41.03.56.02.97-.03,1.25-.13Z"/><path d="m476.94,128.7c.17.45.1.8-.21,1.04-.17.1-.39.17-.65.18-.26.02-.53.03-.81.03h-1.67c-.56,0-.99-.12-1.3-.37-.28-.17-.46-.44-.55-.81-.09-.36-.17-.74-.23-1.12-.04-.14-.05-.27-.05-.39v-.34c-.07-.17-.09-.33-.05-.47.03-.14.03-.28,0-.42-.04-.21-.05-.42-.05-.63v-.62l-.16-2.35c-.07-.24-.1-.49-.1-.73s-.04-.5-.1-.78c-.17-.63-.3-1.25-.39-1.88-.09-.63-.25-1.22-.5-1.77-.66-1.46-1.75-2.43-3.28-2.92-.45-.17-.95-.27-1.49-.29-.54-.02-1.1-.03-1.69-.03h-9.59c-.24.07-.46.13-.65.18-.19.05-.36.17-.5.34-.24.35-.36.91-.34,1.69s.03,1.47.03,2.06v7.56c0,.49.02,1.09.05,1.8.03.71-.03,1.24-.21,1.59-.07.24-.21.4-.42.47-.14.07-.27.1-.39.1s-.27.04-.44.1c-.14.03-.29.04-.47.03-.17-.02-.35-.03-.52-.03-.38,0-.75,0-1.12-.03-.36-.02-.67-.11-.91-.29-.28-.17-.42-.5-.42-.96v-33.07c0-.38,0-.78-.03-1.2-.02-.42.06-.75.23-.99.14-.21.4-.38.78-.52.07-.03.14-.04.21-.03.07.02.14,0,.21-.03h15.11c.24,0,.5,0,.78-.03.28-.02.52,0,.73.03h.57c.21.03.42.06.62.08.21.02.43.04.68.08.28.07.56.12.86.16.29.04.58.09.86.16.66.21,1.27.44,1.82.68.55.24,1.08.54,1.56.89.87.59,1.57,1.31,2.11,2.16.54.85.98,1.85,1.33,3,.07.28.11.56.13.86.02.3.06.58.13.86v.52c.03.17.04.37.03.6-.02.23-.04.43-.08.6v.57c-.07.28-.11.54-.13.78-.02.24-.06.49-.13.73-.17.52-.34,1.02-.5,1.48-.16.47-.37.91-.65,1.33-.1.17-.22.33-.34.47-.12.14-.23.3-.34.47-.03.04-.07.06-.1.08-.04.02-.07.04-.1.08-.07.07-.15.16-.23.26-.09.1-.17.19-.23.26-.28.21-.54.41-.78.6-.24.19-.5.37-.78.55-.17.1-.33.22-.47.34-.14.12-.23.29-.26.5-.04.21.04.38.23.52.19.14.36.24.5.31.38.24.74.5,1.07.78.33.28.62.61.86.99.38.49.66,1.03.83,1.64.17.61.35,1.26.52,1.95.03.28.07.55.1.81.04.26.07.53.1.81.07.24.09.49.05.73-.04.24-.02.49.05.73v.47c.07.24.09.5.05.78-.04.28-.02.56.05.83.03.14.04.27.03.39-.02.12,0,.27.03.44.07.35.12.7.16,1.07.03.36.1.7.21,1.02.07.21.11.41.13.6.02.19.06.39.13.6l.47,1.25Zm-6.31-21.63c.24-.38.42-.78.55-1.2.12-.42.23-.87.34-1.35v-.47c.1-.49.12-1.02.05-1.59s-.17-1.05-.31-1.43c-.56-1.74-1.65-2.94-3.28-3.6-.7-.28-1.5-.43-2.42-.47-.92-.03-1.87-.05-2.84-.05h-8.6c-.07.04-.15.05-.24.05s-.18.02-.29.05c-.42.1-.7.33-.83.68-.14.31-.2.75-.18,1.3.02.56.03,1.06.03,1.51v5.99c0,.52,0,1.07-.03,1.64s.1,1.02.34,1.33c.17.24.43.39.78.44.35.05.73.08,1.15.08h3.23c1.36,0,2.67,0,3.96.03,1.29.02,2.48-.05,3.57-.21,1.09-.16,2.08-.44,2.94-.86s1.56-1.04,2.08-1.88Z"/><path d="m481.48,92.9c.52,0,1.16-.02,1.93-.05.76-.03,1.34.03,1.72.21.28.14.5.31.65.52s.32.43.5.68c.21.35.42.7.62,1.04.21.35.43.7.68,1.04.97,1.53,1.94,3.04,2.89,4.53.96,1.49,1.9,3.01,2.84,4.53.35.56.69,1.09,1.02,1.62.33.52.67,1.04,1.02,1.56.14.24.29.48.44.7.16.23.37.37.65.44.28.07.51,0,.7-.18s.32-.36.39-.5c.35-.49.67-.99.96-1.51.29-.52.6-1.02.91-1.51.94-1.49,1.86-2.99,2.76-4.48.9-1.49,1.82-2.97,2.76-4.43.28-.45.55-.89.81-1.33.26-.43.53-.86.81-1.28.14-.24.28-.47.42-.68.14-.21.31-.4.52-.57.31-.24.75-.36,1.33-.36h1.75c.28,0,.56,0,.83.03.28.02.5.1.68.23.24.17.3.43.18.76-.12.33-.23.57-.34.7-.28.42-.54.83-.78,1.22-.24.4-.5.79-.78,1.17-.17.24-.33.49-.47.73-.14.24-.29.5-.47.78-1.22,1.77-2.4,3.56-3.54,5.37-1.15,1.81-2.29,3.63-3.44,5.47-.38.56-.75,1.1-1.09,1.64-.35.54-.71,1.1-1.09,1.69-.24.38-.48.74-.7,1.07-.23.33-.43.74-.6,1.22-.07.21-.1.44-.1.7v10.34c0,.28.02.57.05.89.03.31.02.61-.05.89v.89c-.1.63-.35,1.03-.73,1.2-.1.07-.21.1-.31.08-.1-.02-.23,0-.36.03-.14.04-.29.04-.44.03-.16-.02-.32-.03-.5-.03h-1.25c-.42,0-.71-.12-.89-.36-.14-.14-.23-.37-.29-.7-.05-.33-.09-.68-.1-1.04-.02-.36-.02-.74,0-1.12.02-.38.03-.73.03-1.04v-9.25c0-.16-.02-.3-.05-.44v-.68c-.17-.59-.39-1.09-.65-1.48s-.53-.83-.81-1.28l-2.03-3.13c-1.18-1.77-2.33-3.53-3.44-5.29-1.11-1.75-2.26-3.52-3.44-5.29-.45-.69-.89-1.36-1.33-2.01-.43-.64-.88-1.31-1.33-2.01-.24-.31-.42-.64-.52-.99-.07-.24-.05-.42.05-.52.03-.17.13-.28.29-.31.16-.03.32-.09.5-.16.03,0,.08,0,.13.03.05.02.1,0,.13-.03Z"/><path d="m267.56,191.24c.17.45.1.8-.21,1.04-.17.1-.39.17-.65.18-.26.02-.53.03-.81.03h-1.67c-.56,0-.99-.12-1.3-.37-.28-.17-.46-.44-.55-.81-.09-.36-.17-.74-.23-1.12-.04-.14-.05-.27-.05-.39v-.34c-.07-.17-.09-.33-.05-.47.03-.14.03-.28,0-.42-.03-.21-.05-.42-.05-.63v-.62l-.16-2.35c-.07-.24-.1-.49-.1-.73s-.04-.5-.1-.78c-.17-.63-.3-1.25-.39-1.88-.09-.63-.25-1.22-.5-1.77-.66-1.46-1.75-2.43-3.28-2.92-.45-.17-.95-.27-1.48-.29-.54-.02-1.1-.03-1.69-.03h-9.59c-.24.07-.46.13-.65.18-.19.05-.36.17-.49.34-.24.35-.36.91-.34,1.69.02.78.03,1.47.03,2.06v7.56c0,.49.02,1.09.05,1.8.03.71-.04,1.24-.21,1.59-.07.24-.21.4-.42.47-.14.07-.27.1-.39.1s-.27.04-.44.1c-.14.03-.3.04-.47.03-.17-.02-.35-.03-.52-.03-.38,0-.76,0-1.12-.03-.36-.02-.67-.11-.91-.29-.28-.17-.42-.5-.42-.96v-33.07c0-.38,0-.78-.03-1.2-.02-.42.06-.75.23-.99.14-.21.4-.38.78-.52.07-.03.14-.04.21-.03.07.02.14,0,.21-.03h15.11c.24,0,.5,0,.78-.03.28-.02.52,0,.73.03h.57c.21.03.42.06.63.08.21.02.43.04.68.08.28.07.56.12.86.16.29.04.58.09.86.16.66.21,1.27.44,1.82.68.56.24,1.08.54,1.56.89.87.59,1.57,1.31,2.11,2.16.54.85.98,1.85,1.33,3,.07.28.11.56.13.86.02.3.06.58.13.86v.52c.03.17.04.37.03.6-.02.23-.04.43-.08.6v.57c-.07.28-.11.54-.13.78-.02.24-.06.49-.13.73-.17.52-.34,1.02-.49,1.48-.16.47-.37.91-.65,1.33-.1.17-.22.33-.34.47-.12.14-.23.3-.34.47-.04.04-.07.06-.1.08-.04.02-.07.04-.1.08-.07.07-.15.16-.23.26-.09.1-.17.19-.23.26-.28.21-.54.41-.78.6-.24.19-.5.37-.78.55-.17.1-.33.22-.47.34-.14.12-.23.29-.26.5-.04.21.04.38.23.52.19.14.36.24.5.31.38.24.74.5,1.07.78.33.28.62.61.86.99.38.49.66,1.03.83,1.64.17.61.35,1.26.52,1.95.03.28.07.55.1.81.03.26.07.53.1.81.07.24.09.49.05.73-.04.24-.02.49.05.73v.47c.07.24.09.5.05.78-.04.28-.02.56.05.83.03.14.04.27.03.39-.02.12,0,.27.03.44.07.35.12.7.16,1.07.03.36.1.7.21,1.02.07.21.11.41.13.6.02.19.06.39.13.6l.47,1.25Zm-6.31-21.63c.24-.38.43-.78.55-1.2.12-.42.23-.87.34-1.35v-.47c.1-.49.12-1.02.05-1.59-.07-.57-.17-1.05-.31-1.43-.56-1.74-1.65-2.94-3.28-3.6-.7-.28-1.5-.43-2.42-.47-.92-.03-1.87-.05-2.84-.05h-8.6c-.07.04-.15.05-.23.05s-.18.02-.29.05c-.42.1-.7.33-.83.68-.14.31-.2.75-.18,1.3.02.56.03,1.06.03,1.51v5.99c0,.52,0,1.07-.03,1.64-.02.57.1,1.02.34,1.33.17.24.43.39.78.44.35.05.73.08,1.15.08h3.23c1.35,0,2.67,0,3.96.03,1.28.02,2.48-.05,3.57-.21,1.09-.16,2.08-.44,2.94-.86.87-.42,1.56-1.04,2.08-1.88Z"/><path d="m275.48,155.44h21.52c.38,0,.76,0,1.15-.03.38-.02.69.06.94.23.1.07.19.16.26.26.07.1.14.21.21.31.07.24.1.63.1,1.17s-.04.95-.1,1.23c-.14.49-.44.76-.89.81-.45.05-.99.08-1.62.08h-13.97c-.56,0-1.21,0-1.95-.03-.75-.02-1.29.08-1.64.29-.35.21-.53.57-.55,1.09-.02.52-.03,1.06-.03,1.62v5.32c0,.38,0,.83-.03,1.35-.02.52,0,.94.08,1.25.1.42.31.7.63.83.14.07.38.14.73.21h.52c.14.04.29.04.44.03.16-.02.32-.03.5-.03h11.99c.31,0,.66,0,1.04-.03.38-.02.77-.02,1.17,0,.4.02.76.05,1.09.1.33.05.58.13.76.23.1.07.19.23.26.47.07.24.12.5.16.78.03.28.04.56.03.86-.02.3-.06.55-.13.76-.07.31-.23.54-.47.68-.07.07-.17.11-.29.13-.12.02-.23.04-.34.08h-.31c-.17.04-.35.04-.52.03-.17-.02-.35-.03-.52-.03h-12.92c-.42,0-.83,0-1.22-.03-.4-.02-.77,0-1.12.05-.35.05-.65.15-.91.29-.26.14-.44.38-.55.73-.07.21-.1.45-.08.73.02.28.03.56.03.83v7.87c0,.49.02.93.05,1.33.03.4.17.69.42.86.24.17.52.27.83.29.31.02.66.03,1.04.03h15.95c.28,0,.56,0,.83-.03.28-.02.52,0,.73.08.42.14.69.33.83.57.07.1.12.28.16.52.03.24.06.5.08.76.02.26,0,.52-.03.78-.03.26-.07.46-.1.6-.14.28-.3.47-.47.57-.21.14-.48.21-.81.21h-22.12c-.49,0-.9-.03-1.25-.08-.35-.05-.61-.22-.78-.5-.14-.21-.21-.48-.21-.81v-34.42c0-.31.07-.56.21-.73.14-.24.4-.42.78-.52.07-.03.14-.04.21-.03.07.02.14,0,.21-.03Z"/><path d="m321.03,154.6c3.4-.07,6.26.48,8.57,1.64,2.31,1.16,4.11,2.77,5.39,4.82.35.56.63,1.09.86,1.59.23.5.44,1.1.65,1.8.07.17.14.41.21.7.07.3.05.56-.05.81-.07.21-.2.34-.39.39-.19.05-.39.11-.6.18h-.52c-.1.04-.23.05-.39.05h-.44c-.49,0-.93-.03-1.33-.08-.4-.05-.69-.22-.86-.5-.24-.35-.44-.75-.57-1.2-.14-.45-.33-.87-.57-1.25-.45-.76-.96-1.42-1.54-1.98-.57-.56-1.24-1.08-2.01-1.56-.42-.28-.88-.49-1.38-.63-.5-.14-1.02-.28-1.54-.42-.38-.1-.82-.18-1.3-.23-.49-.05-1-.08-1.54-.08s-1.06.03-1.56.08c-.5.05-.93.13-1.28.23-.35.07-.68.14-.99.21-.31.07-.63.17-.94.31-2.92,1.22-5.02,3.3-6.31,6.25-.24.49-.44,1-.6,1.54-.16.54-.32,1.09-.5,1.64-.07.21-.1.43-.1.65s-.03.44-.1.65c-.04.14-.05.26-.05.37s-.02.23-.05.36c-.07.38-.11.77-.13,1.17-.02.4-.03.81-.03,1.22,0,.24,0,.5-.03.76-.02.26,0,.49.03.7v.52c.07.24.1.49.08.73-.02.24,0,.49.08.73.07.21.1.42.08.63s0,.4.08.57c.1.45.2.89.29,1.33.09.44.2.86.34,1.28.59,1.74,1.35,3.22,2.29,4.46.94,1.23,2.17,2.25,3.7,3.05.49.24.98.43,1.48.57.5.14,1.05.3,1.64.47.24.07.47.1.68.08.21-.02.45,0,.73.08.17.04.49.06.94.08.45.02.78,0,.99-.08h.36c.14-.03.28-.04.42-.03.14.02.28,0,.42-.08.35-.07.69-.13,1.02-.18.33-.05.65-.15.96-.29,2.71-1.11,4.62-2.94,5.73-5.47.28-.63.54-1.37.78-2.24.07-.31.13-.63.18-.96.05-.33.16-.63.34-.91.17-.28.45-.43.83-.47.38-.03.8-.05,1.25-.05h.52c.17,0,.33.02.47.05h.36c.1.04.22.06.34.08.12.02.22.06.29.13.24.14.38.39.42.76.03.36,0,.72-.1,1.07-.21.8-.4,1.56-.57,2.29-.17.73-.43,1.43-.78,2.08-.28.45-.53.89-.76,1.3-.23.42-.48.83-.76,1.25-.62.9-1.4,1.73-2.32,2.48-.92.75-1.92,1.36-3,1.85-.38.17-.76.31-1.12.42-.37.1-.74.23-1.12.36-.38.14-.77.23-1.17.29-.4.05-.81.11-1.22.18-.17.07-.33.1-.47.08-.14-.02-.28,0-.42.03-.21.03-.42.05-.63.05s-.43.02-.68.05c-.1.03-.34.04-.7.03-.36-.02-.6-.04-.7-.08-.17-.04-.34-.04-.49-.03-.16.02-.32,0-.5-.03h-.52c-.28-.07-.54-.11-.78-.13-.24-.02-.5-.06-.78-.13-.31-.07-.63-.13-.94-.18-.31-.05-.61-.13-.89-.23-.73-.21-1.39-.47-1.98-.78-2.19-.94-3.96-2.27-5.32-4.01-1.35-1.74-2.43-3.79-3.23-6.15-.14-.42-.25-.85-.34-1.3-.09-.45-.18-.92-.29-1.41-.07-.17-.1-.33-.08-.47.02-.14,0-.29-.03-.47-.07-.31-.11-.64-.13-.99-.02-.35-.06-.68-.13-.99v-.99c-.07-.17-.1-.47-.1-.89s.03-.71.1-.89c.03-.1.03-.22,0-.34-.04-.12-.04-.22,0-.29v-.47c.03-.28.06-.56.08-.86.02-.29.06-.58.13-.86.07-.21.1-.42.1-.65s.03-.46.1-.7c.17-.59.31-1.16.42-1.72.1-.56.26-1.08.47-1.56.17-.45.36-.91.55-1.38.19-.47.41-.89.65-1.28.52-.9,1.04-1.72,1.56-2.45.1-.17.23-.32.39-.44.16-.12.29-.27.39-.44.21-.28.43-.52.65-.73.23-.21.46-.42.7-.63.21-.17.41-.34.6-.5s.41-.32.65-.5c.52-.38,1.07-.71,1.64-.99.57-.28,1.17-.56,1.8-.83.38-.17.79-.3,1.23-.39.43-.09.86-.2,1.28-.34.24-.03.47-.07.68-.1.21-.03.42-.07.62-.1.28-.03.55-.06.81-.08.26-.02.53-.04.81-.08.07-.03.16-.03.26,0,.1.03.19.03.26,0Z"/><path d="m376.99,173.26c.03.17.05.43.05.76s-.02.58-.05.76v.62c-.07.35-.1.7-.1,1.07s-.03.7-.1,1.02c-.07.28-.12.54-.16.78-.04.24-.07.5-.1.78-.17.59-.33,1.16-.47,1.72-.14.56-.31,1.09-.52,1.62-1.04,2.54-2.41,4.66-4.09,6.36-1.69,1.7-3.88,3.01-6.59,3.91-.38.1-.76.19-1.15.26-.38.07-.76.16-1.15.26-.17.03-.33.05-.47.05s-.28.02-.42.05l-1.72.16c-.1.03-.34.04-.7.03-.36-.02-.6-.04-.7-.08-.17-.04-.34-.04-.5-.03-.16.02-.3,0-.44-.03h-.57c-.24-.07-.48-.11-.7-.13-.23-.02-.46-.04-.7-.08-.35-.1-.69-.18-1.02-.23-.33-.05-.67-.13-1.02-.23-.35-.14-.7-.28-1.04-.42-.35-.14-.7-.28-1.04-.42-2.12-.94-3.87-2.23-5.24-3.88-1.37-1.65-2.51-3.57-3.41-5.76-.21-.49-.36-.99-.47-1.51-.1-.52-.24-1.06-.42-1.62-.07-.14-.1-.26-.08-.36.02-.1,0-.24-.08-.42-.07-.24-.1-.5-.1-.78s-.03-.56-.1-.83c-.07-.14-.1-.28-.08-.42.02-.14,0-.26-.03-.36v-1.09c-.07-.17-.1-.42-.1-.73s.03-.56.1-.73v-.68l.16-1.88c.07-.21.1-.42.1-.63s.03-.42.1-.63c.14-.56.26-1.1.36-1.64.1-.54.26-1.05.47-1.54.28-.66.54-1.3.78-1.93.24-.63.56-1.22.94-1.77.97-1.56,2.12-2.92,3.44-4.06,1.32-1.15,2.88-2.08,4.69-2.81.38-.17.79-.31,1.22-.42.43-.1.88-.23,1.33-.36.21-.07.42-.1.65-.1s.44-.03.65-.1c.28-.03.55-.06.81-.08.26-.02.53-.04.81-.08.07-.03.16-.03.26,0,.1.03.19.03.26,0,2.33-.07,4.36.17,6.1.7,1.74.54,3.27,1.28,4.59,2.21.52.35,1.02.71,1.51,1.09.49.38.92.82,1.3,1.3.1.17.23.31.36.42.14.1.26.24.36.42.21.28.42.57.63.86.21.3.4.58.57.86.07.17.14.32.21.44.07.12.16.27.26.44.14.21.26.42.36.62.28.63.56,1.29.83,1.98.07.21.13.41.18.6.05.19.11.39.18.6.1.35.2.7.29,1.07.09.36.18.74.29,1.12.07.17.1.35.1.52s.02.35.05.52c.07.24.1.49.1.73s.03.5.1.78v.31c.03.17.03.35,0,.52-.04.17-.02.35.05.52Zm-4.9,1.67c.07-.17.1-.48.1-.91s-.04-.74-.1-.91v-.42c0-.17,0-.33-.03-.47-.02-.14-.03-.29-.03-.47-.07-.17-.1-.34-.08-.5.02-.16,0-.32-.08-.5-.07-.31-.13-.63-.18-.94-.05-.31-.11-.61-.18-.89-.17-.49-.32-.95-.44-1.38-.12-.43-.27-.86-.44-1.28-.59-1.42-1.4-2.71-2.42-3.86-1.02-1.15-2.23-2.03-3.62-2.66-.76-.35-1.67-.63-2.71-.83-.49-.14-1.03-.22-1.64-.23-.61-.02-1.21-.03-1.8-.03-.24.04-.48.06-.7.08-.23.02-.48.04-.76.08-.52.14-1.02.27-1.49.39-.47.12-.93.27-1.38.44-1.88.8-3.35,1.95-4.43,3.44-1.08,1.49-1.95,3.25-2.61,5.26-.14.38-.23.77-.29,1.17-.05.4-.13.81-.23,1.22-.04.17-.05.34-.05.5s-.02.32-.05.5c-.07.14-.1.29-.08.44.02.16,0,.3-.03.44v.47c-.04.17-.05.49-.05.94s.02.76.05.94c0,.14,0,.27.03.39.02.12.03.25.03.39.07.28.11.58.13.91.02.33.06.63.13.91.03.14.04.27.03.39-.02.12,0,.25.08.39.1.38.19.76.26,1.15.07.38.19.76.36,1.15.17.38.32.76.44,1.12.12.36.29.72.49,1.07.17.28.34.55.5.81.16.26.32.53.5.81,1.08,1.53,2.48,2.73,4.22,3.6.49.28.98.49,1.49.63.5.14,1.05.3,1.64.47.24.07.47.1.68.08.21-.02.43,0,.68.08.21.07.44.1.7.08.26-.02.53-.03.81-.03h.52c.17-.03.35-.06.52-.08.17-.02.35-.03.52-.03.49-.1.95-.19,1.38-.26.43-.07.84-.19,1.22-.36,1.77-.73,3.22-1.68,4.35-2.87,1.13-1.18,2.06-2.66,2.79-4.43.17-.45.32-.92.44-1.41.12-.49.25-.97.39-1.46.07-.21.11-.42.13-.65.02-.23.06-.46.13-.7l.16-1.72v-.47Z"/><path d="m412.33,191.24c.17.45.1.8-.21,1.04-.17.1-.39.17-.65.18-.26.02-.53.03-.81.03h-1.67c-.56,0-.99-.12-1.3-.37-.28-.17-.46-.44-.55-.81-.09-.36-.17-.74-.23-1.12-.04-.14-.05-.27-.05-.39v-.34c-.07-.17-.09-.33-.05-.47.03-.14.03-.28,0-.42-.04-.21-.05-.42-.05-.63v-.62l-.16-2.35c-.07-.24-.1-.49-.1-.73s-.04-.5-.1-.78c-.17-.63-.3-1.25-.39-1.88-.09-.63-.25-1.22-.5-1.77-.66-1.46-1.75-2.43-3.28-2.92-.45-.17-.95-.27-1.49-.29-.54-.02-1.1-.03-1.69-.03h-9.59c-.24.07-.46.13-.65.18-.19.05-.36.17-.5.34-.24.35-.36.91-.34,1.69s.03,1.47.03,2.06v7.56c0,.49.02,1.09.05,1.8.03.71-.03,1.24-.21,1.59-.07.24-.21.4-.42.47-.14.07-.27.1-.39.1s-.27.04-.44.1c-.14.03-.29.04-.47.03-.17-.02-.35-.03-.52-.03-.38,0-.75,0-1.12-.03-.36-.02-.67-.11-.91-.29-.28-.17-.42-.5-.42-.96v-33.07c0-.38,0-.78-.03-1.2-.02-.42.06-.75.23-.99.14-.21.4-.38.78-.52.07-.03.14-.04.21-.03.07.02.14,0,.21-.03h15.11c.24,0,.5,0,.78-.03.28-.02.52,0,.73.03h.57c.21.03.42.06.62.08.21.02.43.04.68.08.28.07.56.12.86.16.29.04.58.09.86.16.66.21,1.27.44,1.82.68.55.24,1.08.54,1.56.89.87.59,1.57,1.31,2.11,2.16.54.85.98,1.85,1.33,3,.07.28.11.56.13.86.02.3.06.58.13.86v.52c.03.17.04.37.03.6-.02.23-.04.43-.08.6v.57c-.07.28-.11.54-.13.78-.02.24-.06.49-.13.73-.17.52-.34,1.02-.5,1.48-.16.47-.37.91-.65,1.33-.1.17-.22.33-.34.47-.12.14-.23.3-.34.47-.03.04-.07.06-.1.08-.04.02-.07.04-.1.08-.07.07-.15.16-.23.26-.09.1-.17.19-.23.26-.28.21-.54.41-.78.6-.24.19-.5.37-.78.55-.17.1-.33.22-.47.34-.14.12-.23.29-.26.5-.04.21.04.38.23.52.19.14.36.24.5.31.38.24.74.5,1.07.78.33.28.62.61.86.99.38.49.66,1.03.83,1.64.17.61.35,1.26.52,1.95.03.28.07.55.1.81.04.26.07.53.1.81.07.24.09.49.05.73-.04.24-.02.49.05.73v.47c.07.24.09.5.05.78-.04.28-.02.56.05.83.03.14.04.27.03.39-.02.12,0,.27.03.44.07.35.12.7.16,1.07.03.36.1.7.21,1.02.07.21.11.41.13.6.02.19.06.39.13.6l.47,1.25Zm-6.31-21.63c.24-.38.42-.78.55-1.2.12-.42.23-.87.34-1.35v-.47c.1-.49.12-1.02.05-1.59s-.17-1.05-.31-1.43c-.56-1.74-1.65-2.94-3.28-3.6-.7-.28-1.5-.43-2.42-.47-.92-.03-1.87-.05-2.84-.05h-8.6c-.07.04-.15.05-.24.05s-.18.02-.29.05c-.42.1-.7.33-.83.68-.14.31-.2.75-.18,1.3.02.56.03,1.06.03,1.51v5.99c0,.52,0,1.07-.03,1.64s.1,1.02.34,1.33c.17.24.43.39.78.44.35.05.73.08,1.15.08h3.23c1.36,0,2.67,0,3.96.03,1.29.02,2.48-.05,3.57-.21,1.09-.16,2.08-.44,2.94-.86s1.56-1.04,2.08-1.88Z"/><path d="m449.38,173.1c0,.28,0,.58.03.91.02.33,0,.62-.08.86v.52c-.04.1-.04.23-.03.36.02.14,0,.24-.03.31-.03.17-.05.36-.05.55s-.02.37-.05.55c-.1.49-.17,1-.21,1.54-.04.54-.14,1.05-.31,1.54-.1.42-.22.84-.34,1.28-.12.43-.27.86-.44,1.28-.59,1.49-1.33,2.84-2.21,4.04-.89,1.2-1.99,2.21-3.31,3.05-.66.42-1.36.77-2.11,1.07-.75.3-1.56.58-2.42.86-.38.14-.79.23-1.22.29s-.86.13-1.28.23c-.38.07-.76.1-1.12.1s-.72.04-1.07.1h-.73c-.1.04-.23.04-.37.03-.14-.02-.28-.03-.42-.03h-10.42c-.52,0-.98-.03-1.38-.08-.4-.05-.67-.27-.81-.65-.14-.28-.2-.68-.18-1.2.02-.52.03-.99.03-1.41v-30.8c0-.42,0-.86-.03-1.33-.02-.47.06-.84.23-1.12.14-.24.4-.4.78-.47.07-.03.14-.04.21-.03.07.02.14,0,.21-.03h11.31c.17,0,.34,0,.5-.03.16-.02.3,0,.44.03.17.07.36.09.55.05.19-.03.37-.03.55,0,.17.04.37.05.57.05s.4.02.57.05c.17.04.34.05.5.05s.32.02.5.05c.38.07.75.13,1.09.18.35.05.69.13,1.04.23.76.24,1.49.48,2.19.7.69.23,1.34.53,1.93.91.49.28.92.56,1.3.83.1.07.21.15.31.23.1.09.21.17.31.23.21.17.4.35.57.52s.35.35.52.52c.17.17.31.3.42.36.14.21.29.4.44.57.16.17.3.36.44.57.17.21.32.43.44.65.12.23.27.46.44.7.07.14.12.26.16.36.03.1.09.23.16.36.14.28.26.55.37.81.1.26.23.53.36.81.14.38.25.77.34,1.17.09.4.18.79.29,1.17.07.21.1.41.1.6s.03.39.1.6c.17.63.27,1.31.29,2.06s.03,1.48.03,2.21Zm-4.95,2.71c.07-.35.1-.72.1-1.12v-1.17c0-.28,0-.55.03-.81s0-.51-.08-.76c0-.1,0-.21-.03-.31-.02-.1-.03-.23-.03-.36-.07-.38-.11-.76-.13-1.15-.02-.38-.08-.76-.18-1.15-.07-.28-.13-.55-.18-.81-.05-.26-.11-.53-.18-.81-.38-1.25-.87-2.35-1.46-3.28-.97-1.56-2.42-2.74-4.33-3.54-.31-.17-.64-.3-.99-.39-.35-.09-.71-.18-1.09-.29-.38-.1-.77-.16-1.17-.18-.4-.02-.79-.06-1.17-.13h-1.09c-.1-.03-.23-.05-.36-.05h-6.78c-.07.04-.16.04-.26.03-.1-.02-.19,0-.26.03-.17.07-.34.14-.5.21-.16.07-.27.17-.34.31-.07.14-.14.38-.21.73v.42c-.03.14-.05.3-.05.47v24.62c0,.16.02.3.05.44v.42c.07.35.14.59.21.73.28.42.8.62,1.56.6.76-.02,1.49-.03,2.19-.03h3.02c.24,0,.5,0,.78.03.28.02.52,0,.73-.08h.57c.17-.03.36-.04.57-.03.21.02.42,0,.62-.03.21-.07.42-.11.62-.13.21-.02.43-.06.68-.13.38-.1.76-.21,1.12-.31.37-.1.74-.24,1.12-.42,1.28-.56,2.39-1.31,3.31-2.27.92-.96,1.68-2.09,2.27-3.41.17-.38.32-.79.44-1.22.12-.43.25-.88.39-1.33.1-.38.18-.79.23-1.22.05-.43.11-.86.18-1.28.03-.17.05-.32.05-.44v-.39Z"/><path d="m467.41,154.65c1.98-.07,3.73.09,5.26.47,1.53.38,2.88.96,4.06,1.72.21.14.41.26.6.36.19.1.37.24.55.42.07.07.14.13.21.18.07.05.14.11.21.18.07.07.16.15.26.23.1.09.19.18.26.29.14.17.28.35.42.52.14.17.28.35.42.52s.25.36.34.55c.09.19.18.37.29.55.31.49.55,1.03.73,1.64.17.61.35,1.24.52,1.9.07.28.09.58.08.91-.02.33-.08.58-.18.76-.17.24-.45.38-.83.42-.38.04-.78.05-1.2.05h-.47c-.14,0-.28-.02-.42-.05-.17-.03-.32-.05-.44-.05s-.25-.03-.39-.1c-.07-.03-.14-.08-.21-.13-.07-.05-.14-.11-.21-.18-.21-.31-.36-.69-.44-1.15-.09-.45-.22-.85-.39-1.2-.59-1.39-1.42-2.43-2.5-3.13-.8-.56-1.75-.97-2.87-1.25-.21-.07-.42-.11-.63-.13-.21-.02-.42-.06-.62-.13h-.42c-.28-.07-.56-.1-.83-.1h-.83c-1.81,0-3.32.28-4.53.83-.7.28-1.32.65-1.88,1.12-.56.47-.97,1.05-1.25,1.75-.14.28-.23.56-.29.86-.05.3-.11.62-.18.96-.07.28-.1.59-.08.94.02.35.06.64.13.89.24.8.55,1.41.91,1.82.36.42.88.82,1.54,1.2.76.49,1.62.85,2.55,1.09.94.24,1.91.5,2.92.78.31.07.63.12.94.16.31.04.62.1.94.21.49.14,1,.25,1.54.34.54.09,1.05.22,1.54.39.14.04.26.06.36.08.1.02.23.04.37.08.31.07.62.15.94.23.31.09.63.18.94.29.69.24,1.37.5,2.03.78.66.28,1.29.61,1.88.99.76.49,1.45,1.05,2.06,1.69.61.64,1.1,1.4,1.49,2.27.14.31.24.63.31.94.07.31.14.64.21.99.07.17.1.37.1.6s.03.44.1.65v1.04c-.04.14-.05.28-.05.42v.42c-.07.28-.11.56-.13.86-.02.3-.08.58-.18.86-.17.52-.36,1.02-.57,1.51-.21.49-.47.94-.78,1.35-.59.9-1.34,1.67-2.24,2.29-.9.62-1.88,1.18-2.92,1.67-.35.14-.69.26-1.02.36-.33.1-.69.21-1.07.31-.38.14-.78.23-1.2.29s-.83.13-1.25.23c-.17.03-.36.05-.55.05s-.37.02-.55.05c-.21,0-.42,0-.63.03-.21.02-.42.03-.62.03-.17.03-.43.05-.76.05s-.58-.02-.76-.05h-.57c-.35-.07-.7-.1-1.04-.1s-.68-.04-.99-.1c-.14-.04-.28-.06-.42-.08-.14-.02-.29-.04-.47-.08-.38-.07-.74-.14-1.07-.21-.33-.07-.67-.17-1.02-.31-1.7-.56-3.14-1.27-4.3-2.14-1.16-.87-2.16-2-3-3.39-.28-.45-.51-.92-.7-1.41-.19-.49-.37-1.01-.55-1.56-.07-.21-.11-.42-.13-.63-.02-.21-.06-.4-.13-.57-.07-.31-.1-.67-.1-1.07s.09-.69.26-.86c.17-.24.46-.38.86-.42.4-.03.79-.05,1.17-.05h.44c.16,0,.29.02.39.05.17.03.31.04.42.03.1-.02.23,0,.37.08.24.14.4.28.47.42.1.17.16.36.18.55.02.19.06.39.13.6.07.24.13.49.18.73.05.24.13.49.23.73.59,1.49,1.48,2.68,2.66,3.54.59.45,1.23.82,1.93,1.09.69.28,1.44.54,2.24.78.28.07.55.12.83.16.28.04.56.07.83.1.07,0,.16,0,.26.03.1.02.21.03.31.03.14.04.3.04.5,0,.19-.03.37-.02.55.05.14.03.34.05.6.05s.48-.03.65-.1h.37c.17-.03.35-.05.52-.05s.35-.02.52-.05c.1-.03.2-.04.29-.03.09.02.2,0,.34-.08.28-.07.57-.13.89-.18.31-.05.61-.13.89-.23.9-.38,1.71-.82,2.42-1.33.71-.5,1.26-1.19,1.64-2.06.1-.28.19-.56.26-.83.07-.28.14-.56.21-.83.07-.28.1-.61.1-.99s-.04-.69-.1-.94c-.07-.17-.1-.32-.1-.44s-.04-.25-.1-.39c-.21-.59-.49-1.09-.83-1.48-.35-.4-.76-.77-1.25-1.12-.73-.52-1.55-.94-2.45-1.25-.9-.31-1.85-.58-2.84-.81-.99-.23-2.01-.44-3.05-.65-1.04-.21-2.05-.45-3.02-.73-.56-.17-1.11-.32-1.67-.44-.56-.12-1.08-.29-1.56-.5-.07-.03-.12-.05-.16-.05s-.09-.02-.16-.05c-.35-.14-.7-.28-1.04-.42-.35-.14-.68-.31-.99-.52-.8-.49-1.53-1.02-2.19-1.59s-1.18-1.31-1.56-2.21c-.17-.31-.29-.65-.36-1.02-.07-.36-.16-.74-.26-1.12,0-.14,0-.26-.03-.36-.02-.1-.03-.21-.03-.31-.1-.42-.12-.95-.05-1.59.07-.64.16-1.14.26-1.49.1-.38.2-.75.29-1.09.09-.35.2-.68.34-.99.49-1.04,1.11-1.92,1.88-2.63.76-.71,1.62-1.36,2.55-1.95.07-.07.16-.11.26-.13.1-.02.19-.06.26-.13.76-.38,1.65-.71,2.66-.99.28-.07.54-.13.78-.18.24-.05.5-.11.78-.18.28-.07.58-.1.91-.1s.63-.03.91-.1c.1-.03.26-.03.47,0,.21.04.35.02.42-.05Z"/><path d="m579.26,3.78l-47.89,107.99-.68,1.53.68,1.53,47.89,107.99H214.33V3.78h364.93M585.07,0H210.54v226.61h374.53l-50.25-113.3L585.07,0h0Z"/><line class="cls-1" x1="212.37" x2="212.37" y2="486.18"/><polyline class="cls-2" points="473.12 600.31 390.86 528.81 318.4 528.81 261.6 486.18 153.88 486.18 106.88 512.3 61.48 572.81 -.84 600.31"/></svg>